<svg id="Layer_1" data-name="Layer 1" xmlns="http://www.w3.org/2000/svg" viewBox="0 0 500 500"><defs><style>.cls-1{fill:#2abcb1;}.cls-2{fill:none;}.cls-3{fill:#009b8d;}</style></defs><title>logo</title><path class="cls-1" d="M214.76,329.39c-4.41-2.24-8.12-5.36-8.45-10.9-1.08-18-3.49-35.77-5.29-53.65-.22-2.15-.35-4.3-.61-7.71,6.42,6.06,8.29,12.79,9.63,19.61,2.28,11.57,3.79,23.29,7.35,34.6,1.34,4.27,3.32,5.82,8,4.38a233.56,233.56,0,0,1,51.37-9.54c18.29-1.29,34.84,2.54,47.39,17.1,3,3.52,5.53,7.49,8.25,11.27.89,1.23,1.82,2.81,3.53,2s1-2.4.47-3.85a73.86,73.86,0,0,0-24.54-33.9A104.09,104.09,0,0,0,283.73,283c-19-7.09-38.09-14-57.16-20.87-3.69-1.34-6.18.74-5.48,4.6a22.14,22.14,0,0,0,7.86,13,88.27,88.27,0,0,0,14.15,9.34l12.52,7.1c-.7.54-.94.89-1.17.89-7.82,0-15.65-.1-23.47-.12-13,0-13,0-15.22-13-1.38-8-2.64-16.12-6.77-23.34-2.1-3.67-4.65-6.92-9-8.16-3.06-.87-4.52.2-4.22,3.41.36,3.92.77,7.84,1.28,13-3.35-6.93-6.06-12.77-9-18.51-2.57-5.09-6.39-9-12-10.63-4.59-1.38-6.38.31-5.43,4.9,1.15,5.5,2.34,11,3.61,16.94-2.86-1.39-4-3.73-5.77-5.4-4.54-4.28-9-8.61-16-8.33-4.57.18-6.41,3.68-4.1,7.62,3.84,6.56,7.73,13.09,11.75,19.89-1,.25-1.48.37-1.93.45-2.65.49-6.47-1.43-7.71,1.72s2.62,4.6,4.54,6.43c12.41,11.84,25.28,23.26,33.16,39a7.41,7.41,0,0,0,6.1,3.88c7.94.9,14.7,4.58,21.73,8.06,31.79,15.71,65.34,21.87,100.34,14.85a186.9,186.9,0,0,0,22.52-6,2.09,2.09,0,0,0,1.35-1.45v-.05a2.06,2.06,0,0,0-2.67-2.47C295.74,354.32,254.68,349.69,214.76,329.39ZM235,278.91c-4.08-2.89-7.7-6.23-9.06-11.2,1.26-1.21,2.14-.4,3-.07,21.85,8.44,44.5,14.8,65.6,25.16a72.76,72.76,0,0,1,23.16,18c-16.09-10.31-33.75-10.11-52.4-7.91,2.33-3.32,5.29-4.77,7.81-6.73,1.07-.83,2.23-2,1.38-3.34-1-1.6-2.76-1.29-3.88-.11-4.06,4.3-7.84,2.29-11.94,0C250.72,288.26,242.49,284.2,235,278.91Zm-15.16,23.73c.26-2.18,2.75-1.19,4.23-1.2,11.1-.09,22.2,0,34.15,0a5.87,5.87,0,0,1-5,3.37c-9.2,1.49-18.23,3.76-27.24,6.1-1.26.33-2.91,1.88-3.95-.15C220.72,308.2,219.51,305.41,219.84,302.64Zm-61.21-21.29c5.57-.1,7.47,3.7,8.79,8.15Zm24.52,24.17q-3.64-6.12-7.29-12.24-11-18.68-22.06-37.37c-.61-1-2.22-2.13-1.08-3.41s2.52-.14,3.73.32a20.37,20.37,0,0,1,7,4.64c8.09,7.9,14.9,16.39,16.31,28.29.78,6.54,2.72,12.95,4.13,19.42Zm17.95,18.27a8.86,8.86,0,0,1-10-6.68q-6.54-29.18-13-58.38c-1-4.68-2-9.38-3.19-14.79a16.37,16.37,0,0,1,8.77,7.41c12.4,21.87,18.36,45.44,18.79,70.51C202.49,323.08,202.44,323.6,201.1,323.79Z"/><path class="cls-2" d="M249.91,170.51h.24a37.9,37.9,0,0,1,3.88.2l-2.1-2.49Z"/><path class="cls-3" d="M251.93,168.22l-4.6-5.44a10.22,10.22,0,0,0-15.49-.15l-.46.52-10,11.38,10,1a37.28,37.28,0,0,1,18.48-5Z"/><path class="cls-3" d="M283.56,224.93l5.65-.92a10.22,10.22,0,0,0,8.09-13.21l-.21-.66-4.62-14.42-5.22,7.05a37.78,37.78,0,0,1,.36,5.21A37.3,37.3,0,0,1,283.56,224.93Z"/><path class="cls-3" d="M217.38,226.14l-1.89,4.09a10.22,10.22,0,0,0,6.43,14.1l.67.2,14.54,4.23-2.34-6.6A37.61,37.61,0,0,1,217.38,226.14Z"/><path class="cls-1" d="M286.68,177,277.44,166l-3.9-4.62a10.19,10.19,0,0,0-8.22-3.62h0l-26.24,1.38h0a10.19,10.19,0,0,1,8.26,3.62l4.6,5.44,2.1,2.49,13.59,16.08-6.11,3.15,24.28,6.43.68.18,7.07-23.14Z"/><path class="cls-1" d="M296.56,218.79a10.19,10.19,0,0,1-7.35,5.22l-5.65.92-1.38.22-24,3.91.44-6.86-18.5,18,4.33,4.8,11.88,13.16.49-7.7,14.13-2.3,6-1a10.19,10.19,0,0,0,7.33-5.19h0l12.31-23.22Z"/><path class="cls-1" d="M229.52,180.48l-5.65.8-18.3,2.59,6.11,4.71-6,13-2.53,5.49a10.19,10.19,0,0,0,.2,9h0l12.36,23.19h0a10.19,10.19,0,0,1-.22-9l1.89-4.09,1.09-2.37,10.18-22.08,5.45,4.2Z"/></svg>